REM MD5 4522753a24f70642402e6bacd6d25bcb
FILE "Hyper PlayStation Re-mix 2000 No. 1 (Japan).bin" BINARY
  TRACK 01 MODE2/2352
    INDEX 01 00:00:00
  TRACK 02 AUDIO
    INDEX 00 34:51:44
    INDEX 01 34:54:44
  TRACK 03 AUDIO
    INDEX 00 34:59:19
    INDEX 01 35:02:19
REM LEADOUT 38:34:09
